<svg width="90" height="90" viewBox="0 0 90 90" fill="none" xmlns="http://www.w3.org/2000/svg">
<path fill-rule="evenodd" clip-rule="evenodd" d="M0 45C0 20.1473 20.1473 0 45 0C69.8528 0 90 20.1473 90 45C90 69.8528 69.8528 90 45 90C20.1473 90 0 69.8528 0 45ZM36 72C40.9706 72 45 67.9706 45 63V54H36C31.0294 54 27 58.0294 27 63C27 67.9706 31.0294 72 36 72ZM27 45C27 49.9706 31.0294 54 36 54H45V36H36C31.0294 36 27 40.0294 27 45ZM27 27C27 31.9706 31.0294 36 36 36H45V18H36C31.0294 18 27 22.0294 27 27ZM45 18V36H54C58.9706 36 63 31.9706 63 27C63 22.0294 58.9706 18 54 18H45ZM63 45C63 40.0294 58.9706 36 54 36C49.0294 36 45 40.0294 45 45C45 49.9706 49.0294 54 54 54C58.9706 54 63 49.9706 63 45Z" fill="black"/>
</svg>
